<svg version="1.1" xmlns="http://www.w3.org/2000/svg" xmlns:xlink="http://www.w3.org/1999/xlink" width="35.34091" height="47.8021"><g transform="translate(-223.16288,-156.84895)"><g data-paper-data="{&quot;isPaintingLayer&quot;:true}" fill="none" fill-rule="nonzero" stroke="none" stroke-width="1" stroke-linecap="butt" stroke-linejoin="miter" stroke-miterlimit="10" stroke-dasharray="" stroke-dashoffset="0" font-family="none" font-weight="none" font-size="none" text-anchor="none" style="mix-blend-mode: normal"><path d="M224.82955,181.5v-23.15105h13.4697h13.4697v3.36743v3.36742h3.36742h3.36742v3.36743v3.36743h-3.36742c-3.28324,0 -3.36742,0.08418 -3.36742,2.94649c0,2.86231 0.08418,2.9465 3.36742,2.9465h3.36742v13.4697v13.4697h-3.36742h-3.36742v-13.04877v-13.04877h-10.10228h-10.10228v13.04877v13.04877h-3.36742h-3.36743zM251.76895,168.45123v-3.36743h-10.10228h-10.10228v3.36743v3.36743h10.10228h10.10228z" data-paper-data="{&quot;origPos&quot;:null}" id="path105" fill="#000000"/><path d="M223.1629,180v-23.15105h13.4697h13.4697v3.36743v3.36742h3.36742h3.36742v3.36743v3.36743h-3.36742c-3.28324,0 -3.36742,0.08418 -3.36742,2.94649c0,2.86231 0.08418,2.9465 3.36742,2.9465h3.36742v13.4697v13.4697h-3.36742h-3.36742v-13.04877v-13.04877h-10.10228h-10.10228v13.04877v13.04877h-3.36742h-3.36743zM250.1023,166.95123v-3.36743h-10.10228h-10.10228v3.36743v3.36743h10.10228h10.10228z" data-paper-data="{&quot;origPos&quot;:null}" id="path105" fill="#ffffff"/></g></g></svg>