<svg version="1.1" xmlns="http://www.w3.org/2000/svg" xmlns:xlink="http://www.w3.org/1999/xlink" width="35.17424" height="47.96875"><g transform="translate(-223.16288,-156.84896)"><g data-paper-data="{&quot;isPaintingLayer&quot;:true}" fill="none" fill-rule="nonzero" stroke="none" stroke-width="1" stroke-linecap="butt" stroke-linejoin="miter" stroke-miterlimit="10" stroke-dasharray="" stroke-dashoffset="0" font-family="none" font-weight="none" font-size="none" text-anchor="none" style="mix-blend-mode: normal"><path d="M231.39772,201.45029v-3.36742h-3.36743h-3.36742v-3.36743v-3.36742h3.36742h3.36743v3.36742v3.36743h10.10227h10.10228v-9.68135v-9.68135h-10.10228h-10.10227v-3.36742v-3.36742h-3.36743h-3.36742v-3.36743v-3.36743h3.36742h3.36743v-3.36742v-3.36743h13.4697h13.4697v3.36743v3.36742h-13.4697h-13.4697v3.36743v3.36743h10.10227h10.10228v2.94649c0,2.86231 0.08418,2.9465 3.36742,2.9465h3.36743v10.10227v10.10227h-3.36743h-3.36742v3.36742v3.36743h-10.10228h-10.10227z" data-paper-data="{&quot;origPos&quot;:null}" id="path107" fill="#000000"/><path d="M229.89774,199.78364v-3.36742h-3.36743h-3.36742v-3.36743v-3.36742h3.36742h3.36743v3.36742v3.36743h10.10227h10.10228v-9.68135v-9.68135h-10.10228h-10.10227v-3.36742v-3.36742h-3.36743h-3.36742v-3.36743v-3.36743h3.36742h3.36743v-3.36742v-3.36743h13.4697h13.4697v3.36743v3.36742h-13.4697h-13.4697v3.36743v3.36743h10.10227h10.10228v2.94649c0,2.86231 0.08418,2.9465 3.36742,2.9465h3.36743v10.10227v10.10227h-3.36743h-3.36742v3.36742v3.36743h-10.10228h-10.10227z" data-paper-data="{&quot;origPos&quot;:null}" id="path107" fill="#ffffff"/></g></g></svg>