<svg version="1.1" xmlns="http://www.w3.org/2000/svg" xmlns:xlink="http://www.w3.org/1999/xlink" width="34.66571" height="47.96873"><g transform="translate(-223.58381,-156.84897)"><g data-paper-data="{&quot;isPaintingLayer&quot;:true}" fill="none" fill-rule="nonzero" stroke="none" stroke-width="1" stroke-linecap="butt" stroke-linejoin="miter" stroke-miterlimit="10" stroke-dasharray="" stroke-dashoffset="0" font-family="none" font-weight="none" font-size="none" text-anchor="none" style="mix-blend-mode: normal"><path d="M225.41714,181.66667v-23.15104h13.4697h13.4697v3.36743c0,3.28324 0.08419,3.36742 2.94649,3.36742c2.86231,0 2.94649,0.08419 2.94649,3.36743c0,3.28324 -0.08419,3.36742 -2.94649,3.36742c-2.77813,0 -2.94649,0.16837 -2.94649,2.94649c0,2.77813 0.16837,2.9465 2.94649,2.9465h2.94649v10.10227v10.10227h-2.94649c-2.86231,0 -2.94649,0.08418 -2.94649,3.36742v3.36742h-13.4697h-13.4697zM251.51468,188.40151v-9.68134h-9.68134h-9.68134v9.68135v9.68135h9.68135h9.68135zM251.51468,168.6179v-3.36743h-9.68134h-9.68134v3.36743v3.36742h9.68135h9.68135z" data-paper-data="{&quot;origPos&quot;:null}" id="path73" fill="#000000"/><path d="M223.58381,180.00002v-23.15104h13.4697h13.4697v3.36743c0,3.28324 0.08419,3.36742 2.94649,3.36742c2.86231,0 2.94649,0.08419 2.94649,3.36743c0,3.28324 -0.08419,3.36742 -2.94649,3.36742c-2.77813,0 -2.94649,0.16837 -2.94649,2.94649c0,2.77813 0.16837,2.9465 2.94649,2.9465h2.94649v10.10227v10.10227h-2.94649c-2.86231,0 -2.94649,0.08418 -2.94649,3.36742v3.36742h-13.4697h-13.4697zM249.68135,186.73486v-9.68134h-9.68134h-9.68134v9.68135v9.68135h9.68135h9.68135zM249.68135,166.95125v-3.36743h-9.68134h-9.68134v3.36743v3.36742h9.68135h9.68135z" data-paper-data="{&quot;origPos&quot;:null}" id="path73" fill="#ffffff"/></g></g></svg>