<svg version="1.1" xmlns="http://www.w3.org/2000/svg" xmlns:xlink="http://www.w3.org/1999/xlink" width="34.49905" height="47.96873"><g transform="translate(-223.58381,-156.84897)"><g data-paper-data="{&quot;isPaintingLayer&quot;:true}" fill="none" fill-rule="nonzero" stroke="none" stroke-width="1" stroke-linecap="butt" stroke-linejoin="miter" stroke-miterlimit="10" stroke-dasharray="" stroke-dashoffset="0" font-family="none" font-weight="none" font-size="none" text-anchor="none" style="mix-blend-mode: normal"><path d="M225.25048,181.66667v-23.15104h3.36742h3.36743v6.73485v6.73485h6.31392h6.31392v-3.36742v-3.36743h3.36742h3.36742v-3.36742v-3.36743h3.36742h3.36743v3.36743v3.36742h-3.36743h-3.36742v3.36743c0,3.28324 -0.08419,3.36742 -2.9465,3.36742c-2.77812,0 -2.94649,0.16837 -2.94649,2.94649c0,2.77813 0.16837,2.9465 2.94649,2.9465c2.86231,0 2.9465,0.08418 2.9465,3.36742v3.36742h3.36742h3.36743v10.10227v10.10227h-3.36743h-3.36742v-9.68134v-9.68135h-3.36742h-3.36742v-3.36742v-3.36743h-6.31392h-6.31392v13.04877v13.04877h-3.36743h-3.36742z" data-paper-data="{&quot;origPos&quot;:null}" id="path91" fill="#000000"/><path d="M223.58381,180.00002v-23.15104h3.36742h3.36743v6.73485v6.73485h6.31392h6.31392v-3.36742v-3.36743h3.36742h3.36742v-3.36742v-3.36743h3.36742h3.36743v3.36743v3.36742h-3.36743h-3.36742v3.36743c0,3.28324 -0.08419,3.36742 -2.9465,3.36742c-2.77812,0 -2.94649,0.16837 -2.94649,2.94649c0,2.77813 0.16837,2.9465 2.94649,2.9465c2.86231,0 2.9465,0.08418 2.9465,3.36742v3.36742h3.36742h3.36743v10.10227v10.10227h-3.36743h-3.36742v-9.68134v-9.68135h-3.36742h-3.36742v-3.36742v-3.36743h-6.31392h-6.31392v13.04877v13.04877h-3.36743h-3.36742z" data-paper-data="{&quot;origPos&quot;:null}" id="path91" fill="#ffffff"/></g></g></svg>