<svg version="1.1" xmlns="http://www.w3.org/2000/svg" xmlns:xlink="http://www.w3.org/1999/xlink" width="34.49905" height="47.96875"><g transform="translate(-223.58381,-156.84896)"><g data-paper-data="{&quot;isPaintingLayer&quot;:true}" fill="none" fill-rule="nonzero" stroke="none" stroke-width="1" stroke-linecap="butt" stroke-linejoin="miter" stroke-miterlimit="10" stroke-dasharray="" stroke-dashoffset="0" font-family="none" font-weight="none" font-size="none" text-anchor="none" style="mix-blend-mode: normal"><path d="M231.98532,201.45029v-3.36742h-3.36742h-3.36742v-16.41619v-16.4162h3.36742h3.36742v-3.36742v-3.36743h10.10228h10.10227v3.36743c0,3.28324 0.08419,3.36742 2.94649,3.36742c2.86231,0 2.9465,0.08419 2.9465,3.36743v3.36742h-3.36742h-3.36742v-3.36742v-3.36743h-9.68134h-9.68135v16.4162v16.41619h9.68135h9.68134v-3.36743v-3.36742h3.36742h3.36742v3.36742c0,3.28324 -0.08419,3.36743 -2.9465,3.36743c-2.86231,0 -2.94649,0.08418 -2.94649,3.36742v3.36742h-10.10227h-10.10228z" data-paper-data="{&quot;origPos&quot;:null}" id="path75" fill="#000000"/><path d="M230.31865,199.78362v-3.36742h-3.36742h-3.36742v-16.41619v-16.4162h3.36742h3.36742v-3.36742v-3.36743h10.10228h10.10227v3.36743c0,3.28324 0.08419,3.36742 2.94649,3.36742c2.86231,0 2.9465,0.08419 2.9465,3.36743v3.36742h-3.36742h-3.36742v-3.36742v-3.36743h-9.68134h-9.68135v16.4162v16.41619h9.68135h9.68134v-3.36743v-3.36742h3.36742h3.36742v3.36742c0,3.28324 -0.08419,3.36743 -2.9465,3.36743c-2.86231,0 -2.94649,0.08418 -2.94649,3.36742v3.36742h-10.10227h-10.10228z" data-paper-data="{&quot;origPos&quot;:null}" id="path75" fill="#ffffff"/></g></g></svg>