<svg version="1.1" xmlns="http://www.w3.org/2000/svg" xmlns:xlink="http://www.w3.org/1999/xlink" width="34.49905" height="47.96877"><g transform="translate(-223.58381,-156.84895)"><g data-paper-data="{&quot;isPaintingLayer&quot;:true}" fill="none" fill-rule="nonzero" stroke="none" stroke-width="1" stroke-linecap="butt" stroke-linejoin="miter" stroke-miterlimit="10" stroke-dasharray="" stroke-dashoffset="0" font-family="none" font-weight="none" font-size="none" text-anchor="none" style="mix-blend-mode: normal"><path d="M225.25047,194.71544v-10.10227h2.9465c2.86231,0 2.94649,-0.08418 2.94649,-3.36743v-3.36742h3.36743c3.28324,0 3.36743,-0.08418 3.36743,-2.9465c0,-2.86231 -0.08419,-2.94649 -3.36743,-2.94649h-3.36743v-3.36743c0,-3.28324 -0.08418,-3.36743 -2.94649,-3.36743c-2.86231,0 -2.9465,-0.08418 -2.9465,-3.36742v-3.36743h3.36743h3.36742v3.36743v3.36742h3.36742h3.36743v3.36743c0,3.28324 0.08419,3.36743 2.9465,3.36743c2.86231,0 2.94649,-0.08419 2.94649,-3.36743v-3.36743h3.36743h3.36743v-3.36742v-3.36743h3.36742h3.36742v3.36743v3.36742h-3.36742h-3.36742v3.36743v3.36743h-3.36743c-3.28324,0 -3.36743,0.08418 -3.36743,2.94649c0,2.86231 0.08419,2.9465 3.36743,2.9465h3.36743v3.36742v3.36743h3.36742h3.36742v10.10227v10.10228h-3.36742h-3.36742v-9.68135v-9.68134h-3.36743h-3.36743v-3.36743c0,-3.28324 -0.08418,-3.36743 -2.94649,-3.36743c-2.86231,0 -2.9465,0.08418 -2.9465,3.36743v3.36743h-3.36743h-3.36742v9.68134v9.68135h-3.36742h-3.36743z" data-paper-data="{&quot;origPos&quot;:null}" id="path117" fill="#000000"/><path d="M223.58382,193.04877v-10.10227h2.9465c2.86231,0 2.94649,-0.08418 2.94649,-3.36743v-3.36742h3.36743c3.28324,0 3.36743,-0.08418 3.36743,-2.9465c0,-2.86231 -0.08419,-2.94649 -3.36743,-2.94649h-3.36743v-3.36743c0,-3.28324 -0.08418,-3.36743 -2.94649,-3.36743c-2.86231,0 -2.9465,-0.08418 -2.9465,-3.36742v-3.36743h3.36743h3.36742v3.36743v3.36742h3.36742h3.36743v3.36743c0,3.28324 0.08419,3.36743 2.9465,3.36743c2.86231,0 2.94649,-0.08419 2.94649,-3.36743v-3.36743h3.36743h3.36743v-3.36742v-3.36743h3.36742h3.36742v3.36743v3.36742h-3.36742h-3.36742v3.36743v3.36743h-3.36743c-3.28324,0 -3.36743,0.08418 -3.36743,2.94649c0,2.86231 0.08419,2.9465 3.36743,2.9465h3.36743v3.36742v3.36743h3.36742h3.36742v10.10227v10.10228h-3.36742h-3.36742v-9.68135v-9.68134h-3.36743h-3.36743v-3.36743c0,-3.28324 -0.08418,-3.36743 -2.94649,-3.36743c-2.86231,0 -2.9465,0.08418 -2.9465,3.36743v3.36743h-3.36743h-3.36742v9.68134v9.68135h-3.36742h-3.36743z" data-paper-data="{&quot;origPos&quot;:null}" id="path117" fill="#ffffff"/></g></g></svg>