<svg version="1.1" xmlns="http://www.w3.org/2000/svg" xmlns:xlink="http://www.w3.org/1999/xlink" width="34.49909" height="47.96877"><g transform="translate(-223.58379,-156.84895)"><g data-paper-data="{&quot;isPaintingLayer&quot;:true}" fill="none" fill-rule="nonzero" stroke="none" stroke-width="1" stroke-linecap="butt" stroke-linejoin="miter" stroke-miterlimit="10" stroke-dasharray="" stroke-dashoffset="0" font-family="none" font-weight="none" font-size="none" text-anchor="none" style="mix-blend-mode: normal"><path d="M237.8783,188.40152v-16.41619h-3.36742h-3.36742v-3.36743c0,-3.28324 -0.08419,-3.36743 -2.9465,-3.36743c-2.86231,0 -2.9465,-0.08418 -2.9465,-3.36742v-3.36743h3.36743h3.36742v3.36743v3.36742h3.36743h3.36743v3.36743c0,3.28324 0.08419,3.36743 2.9465,3.36743c2.86231,0 2.9465,-0.08419 2.9465,-3.36743v-3.36743h3.36742h3.36743v-3.36742v-3.36743h3.36743h3.36743v3.36743v3.36742h-3.36743h-3.36743v3.36743v3.36743h-3.36743h-3.36742v16.41619v16.4162h-3.36743h-3.36743z" data-paper-data="{&quot;origPos&quot;:null}" id="path119" fill="#000000"/><path d="M236.21163,186.73485v-16.41619h-3.36742h-3.36742v-3.36743c0,-3.28324 -0.08419,-3.36743 -2.9465,-3.36743c-2.86231,0 -2.9465,-0.08418 -2.9465,-3.36742v-3.36743h3.36743h3.36742v3.36743v3.36742h3.36743h3.36743v3.36743c0,3.28324 0.08419,3.36743 2.9465,3.36743c2.86231,0 2.9465,-0.08419 2.9465,-3.36743v-3.36743h3.36742h3.36743v-3.36742v-3.36743h3.36743h3.36743v3.36743v3.36742h-3.36743h-3.36743v3.36743v3.36743h-3.36743h-3.36742v16.41619v16.4162h-3.36743h-3.36743z" data-paper-data="{&quot;origPos&quot;:null}" id="path119" fill="#ffffff"/></g></g></svg>