<svg version="1.1" xmlns="http://www.w3.org/2000/svg" xmlns:xlink="http://www.w3.org/1999/xlink" width="35.34092" height="47.96875"><g transform="translate(-223.16287,-156.84896)"><g data-paper-data="{&quot;isPaintingLayer&quot;:true}" fill="none" fill-rule="nonzero" stroke="none" stroke-width="1" stroke-linecap="butt" stroke-linejoin="miter" stroke-miterlimit="10" stroke-dasharray="" stroke-dashoffset="0" font-family="none" font-weight="none" font-size="none" text-anchor="none" style="mix-blend-mode: normal"><path d="M231.56439,201.45028v-3.36742h-3.36743h-3.36742v-16.41619v-16.4162h3.36742h3.36743v-3.36742v-3.36743h10.10228h10.10227v3.36743v3.36742h3.36743h3.36742v13.04877v13.04877h-3.36742h-3.36743v3.36742v3.36743h3.36743h3.36742v3.36742v3.36743h-3.78835h-3.78835v-3.36743c0,-3.28324 -0.08418,-3.36742 -2.94649,-3.36742c-2.86231,0 -2.9465,0.08418 -2.9465,3.36742v3.36743h-6.73485h-6.73485zM245.03411,194.71542c0,-3.28324 0.08419,-3.36742 2.9465,-3.36742h2.94649v-13.04877v-13.04877h-9.68134h-9.68135v16.4162v16.41619h6.73485h6.73485z" data-paper-data="{&quot;origPos&quot;:null}" id="path103" fill="#000000"/><path d="M229.89772,199.78362v-3.36742h-3.36743h-3.36742v-16.41619v-16.4162h3.36742h3.36743v-3.36742v-3.36743h10.10228h10.10227v3.36743v3.36742h3.36743h3.36742v13.04877v13.04877h-3.36742h-3.36743v3.36742v3.36743h3.36743h3.36742v3.36742v3.36743h-3.78835h-3.78835v-3.36743c0,-3.28324 -0.08418,-3.36742 -2.94649,-3.36742c-2.86231,0 -2.9465,0.08418 -2.9465,3.36742v3.36743h-6.73485h-6.73485zM243.36744,193.04876c0,-3.28324 0.08419,-3.36742 2.9465,-3.36742h2.94649v-13.04877v-13.04877h-9.68134h-9.68135v16.4162v16.41619h6.73485h6.73485z" data-paper-data="{&quot;origPos&quot;:null}" id="path103" fill="#ffffff"/></g></g></svg>