<svg version="1.1" xmlns="http://www.w3.org/2000/svg" xmlns:xlink="http://www.w3.org/1999/xlink" width="35.34091" height="47.96875"><g transform="translate(-223.16288,-156.84896)"><g data-paper-data="{&quot;isPaintingLayer&quot;:true}" fill="none" fill-rule="nonzero" stroke="none" stroke-width="1" stroke-linecap="butt" stroke-linejoin="miter" stroke-miterlimit="10" stroke-dasharray="" stroke-dashoffset="0" font-family="none" font-weight="none" font-size="none" text-anchor="none" style="mix-blend-mode: normal"><path d="M224.82955,181.66668v-23.15105h13.4697h13.4697v3.36743v3.36742h3.36742h3.36742v3.36742v3.36742h-3.36742h-3.36742v3.36742v3.36743h-10.10227h-10.10227v13.04877v13.04877h-3.36742h-3.36742zM250.92709,168.61791v-3.36742h-9.68135h-9.68134v3.36742v3.36742h9.68134h9.68135z" data-paper-data="{&quot;origPos&quot;:null}" id="path101" fill="#000000"/><path d="M223.16288,180.00001v-23.15105h13.4697h13.4697v3.36743v3.36742h3.36742h3.36742v3.36742v3.36742h-3.36742h-3.36742v3.36742v3.36743h-10.10227h-10.10227v13.04877v13.04877h-3.36742h-3.36742zM249.26042,166.95124v-3.36742h-9.68135h-9.68134v3.36742v3.36742h9.68134h9.68135z" data-paper-data="{&quot;origPos&quot;:null}" id="path101" fill="#ffffff"/></g></g></svg>