<svg version="1.1" xmlns="http://www.w3.org/2000/svg" xmlns:xlink="http://www.w3.org/1999/xlink" width="35.34094" height="47.96875"><g transform="translate(-223.16286,-156.84897)"><g data-paper-data="{&quot;isPaintingLayer&quot;:true}" fill="none" fill-rule="nonzero" stroke="none" stroke-width="1" stroke-linecap="butt" stroke-linejoin="miter" stroke-miterlimit="10" stroke-dasharray="" stroke-dashoffset="0" font-family="none" font-weight="none" font-size="none" text-anchor="none" style="mix-blend-mode: normal"><path d="M238.29923,201.45028v-3.36742h-3.36742h-3.36742v-6.31392v-6.31392h-3.36743h-3.36743v-13.4697v-13.4697h3.78835h3.78836v13.04877v13.04877h2.9465h2.94649v6.73485v6.73485h3.36743h3.36743v-6.73485v-6.73485h3.36743h3.36743v-13.04877v-13.04877h3.36742h3.36743v13.4697v13.4697h-3.36743h-3.36742v6.31392v6.31392h-3.36743h-3.36743v3.36742v3.36743h-3.36743h-3.36743z" data-paper-data="{&quot;origPos&quot;:null}" id="path113" fill="#000000"/><path d="M236.63256,199.78363v-3.36742h-3.36742h-3.36742v-6.31392v-6.31392h-3.36743h-3.36743v-13.4697v-13.4697h3.78835h3.78836v13.04877v13.04877h2.9465h2.94649v6.73485v6.73485h3.36743h3.36743v-6.73485v-6.73485h3.36743h3.36743v-13.04877v-13.04877h3.36742h3.36743v13.4697v13.4697h-3.36743h-3.36742v6.31392v6.31392h-3.36743h-3.36743v3.36742v3.36743h-3.36743h-3.36743z" data-paper-data="{&quot;origPos&quot;:null}" id="path113" fill="#ffffff"/></g></g></svg>