<svg version="1.1" xmlns="http://www.w3.org/2000/svg" xmlns:xlink="http://www.w3.org/1999/xlink" width="34.49909" height="47.96875"><g transform="translate(-223.58379,-156.84896)"><g data-paper-data="{&quot;isPaintingLayer&quot;:true}" fill="none" fill-rule="nonzero" stroke="none" stroke-width="1" stroke-linecap="butt" stroke-linejoin="miter" stroke-miterlimit="10" stroke-dasharray="" stroke-dashoffset="0" font-family="none" font-weight="none" font-size="none" text-anchor="none" style="mix-blend-mode: normal"><path d="M225.25047,198.08287v-6.73485h2.9465c2.86231,0 2.9465,-0.08418 2.9465,-3.36743v-3.36742h3.36742h3.36743v-3.36743v-3.36742h3.36743c3.28324,0 3.36742,-0.08418 3.36742,-2.9465c0,-2.86231 0.08418,-2.94649 3.36742,-2.94649h3.36743v-3.36743v-3.36743h-13.04877h-13.04877v-3.36742v-3.36743h16.4162h16.4162v6.73485v6.73485h-3.36743h-3.36743v3.36742v3.36742h-3.36743h-3.36742v3.36743c0,3.28324 -0.08419,3.36743 -2.9465,3.36743c-2.77813,0 -2.9465,0.16837 -2.9465,2.94649c0,2.86231 -0.08419,2.9465 -3.36743,2.9465h-3.36742v3.36742v3.36743h13.04877h13.04877v3.36742v3.36743h-16.4162h-16.4162z" data-paper-data="{&quot;origPos&quot;:null}" id="path121" fill="#000000"/><path d="M223.5838,196.41622v-6.73485h2.9465c2.86231,0 2.9465,-0.08418 2.9465,-3.36743v-3.36742h3.36742h3.36743v-3.36743v-3.36742h3.36743c3.28324,0 3.36742,-0.08418 3.36742,-2.9465c0,-2.86231 0.08418,-2.94649 3.36742,-2.94649h3.36743v-3.36743v-3.36743h-13.04877h-13.04877v-3.36742v-3.36743h16.4162h16.4162v6.73485v6.73485h-3.36743h-3.36743v3.36742v3.36742h-3.36743h-3.36742v3.36743c0,3.28324 -0.08419,3.36743 -2.9465,3.36743c-2.77813,0 -2.9465,0.16837 -2.9465,2.94649c0,2.86231 -0.08419,2.9465 -3.36743,2.9465h-3.36742v3.36742v3.36743h13.04877h13.04877v3.36742v3.36743h-16.4162h-16.4162z" data-paper-data="{&quot;origPos&quot;:null}" id="path121" fill="#ffffff"/></g></g></svg>