<svg version="1.1" xmlns="http://www.w3.org/2000/svg" xmlns:xlink="http://www.w3.org/1999/xlink" width="34.49905" height="47.96876"><g transform="translate(-223.58381,-156.84896)"><g data-paper-data="{&quot;isPaintingLayer&quot;:true}" fill="none" fill-rule="nonzero" stroke="none" stroke-width="1" stroke-linecap="butt" stroke-linejoin="miter" stroke-miterlimit="10" stroke-dasharray="" stroke-dashoffset="0" font-family="none" font-weight="none" font-size="none" text-anchor="none" style="mix-blend-mode: normal"><path d="M225.25048,185.03409v-19.78362h3.36742h3.36743v-3.36742v-3.36743h10.10227h10.10228v3.36743c0,3.28324 0.08418,3.36742 2.94649,3.36742h2.94649v19.78362v19.78362h-3.36742h-3.36743v-13.04877v-13.04877h-9.68134h-9.68134v13.04877v13.04877h-3.36742h-3.36742zM251.34802,168.6179v-3.36743h-9.68134h-9.68134v3.36743v3.36742h9.68135h9.68135z" data-paper-data="{&quot;origPos&quot;:null}" id="path71" fill="#000000"/><path d="M223.58381,183.36743v-19.78362h3.36742h3.36743v-3.36742v-3.36743h10.10227h10.10228v3.36743c0,3.28324 0.08418,3.36742 2.94649,3.36742h2.94649v19.78362v19.78362h-3.36742h-3.36743v-13.04877v-13.04877h-9.68134h-9.68134v13.04877v13.04877h-3.36742h-3.36742zM249.68135,166.95124v-3.36743h-9.68134h-9.68134v3.36743v3.36742h9.68135h9.68135z" data-paper-data="{&quot;origPos&quot;:null}" id="path71" fill="#ffffff"/></g></g></svg>