<svg version="1.1" xmlns="http://www.w3.org/2000/svg" xmlns:xlink="http://www.w3.org/1999/xlink" width="35.34091" height="47.96875"><g transform="translate(-223.16288,-156.84896)"><g data-paper-data="{&quot;isPaintingLayer&quot;:true}" fill="none" fill-rule="nonzero" stroke="none" stroke-width="1" stroke-linecap="butt" stroke-linejoin="miter" stroke-miterlimit="10" stroke-dasharray="" stroke-dashoffset="0" font-family="none" font-weight="none" font-size="none" text-anchor="none" style="mix-blend-mode: normal"><path d="M224.82954,181.66667v-23.15105h3.78835h3.78835v16.4162v16.4162h2.9465c2.86231,0 2.9465,-0.08418 2.9465,-3.36743v-3.36742h3.36742h3.36742v3.36742v3.36743h3.36743h3.36743v-16.4162v-16.4162h3.36742h3.36743v23.15105v23.15104h-3.36743h-3.36742v-3.36743v-3.36742h-3.36743h-3.36743v-3.36743v-3.36742h-3.36742h-3.36742v3.36742c0,3.28324 -0.08419,3.36743 -2.9465,3.36743c-2.86231,0 -2.9465,0.08418 -2.9465,3.36742v3.36743h-3.78835h-3.78835z" data-paper-data="{&quot;origPos&quot;:null}" id="path115" fill="#000000"/><path d="M223.16289,180.00002v-23.15105h3.78835h3.78835v16.4162v16.4162h2.9465c2.86231,0 2.9465,-0.08418 2.9465,-3.36743v-3.36742h3.36742h3.36742v3.36742v3.36743h3.36743h3.36743v-16.4162v-16.4162h3.36742h3.36743v23.15105v23.15104h-3.36743h-3.36742v-3.36743v-3.36742h-3.36743h-3.36743v-3.36743v-3.36742h-3.36742h-3.36742v3.36742c0,3.28324 -0.08419,3.36743 -2.9465,3.36743c-2.86231,0 -2.9465,0.08418 -2.9465,3.36742v3.36743h-3.78835h-3.78835z" data-paper-data="{&quot;origPos&quot;:null}" id="path115" fill="#ffffff"/></g></g></svg>