<svg version="1.1" xmlns="http://www.w3.org/2000/svg" xmlns:xlink="http://www.w3.org/1999/xlink" width="35.34091" height="47.96875"><g transform="translate(-223.16288,-156.84896)"><g data-paper-data="{&quot;isPaintingLayer&quot;:true}" fill="none" fill-rule="nonzero" stroke="none" stroke-width="1" stroke-linecap="butt" stroke-linejoin="miter" stroke-miterlimit="10" stroke-dasharray="" stroke-dashoffset="0" font-family="none" font-weight="none" font-size="none" text-anchor="none" style="mix-blend-mode: normal"><path d="M231.56439,201.45028v-3.36742h-3.36742h-3.36742v-16.41619v-16.4162h3.36742h3.36742v-3.36742v-3.36743h13.4697h13.4697v3.36743v3.36742h-13.4697h-13.4697v16.4162v16.41619h10.10228h10.10228v-9.68135v-9.68134h-3.36743h-3.36743v-3.36742v-3.36742h6.73485h6.73484v13.04877v13.04877h-3.36742h-3.36742v3.36742v3.36742h-10.10228h-10.10228z" data-paper-data="{&quot;origPos&quot;:null}" id="path83" fill="#000000"/><path d="M229.89772,199.78363v-3.36742h-3.36742h-3.36742v-16.41619v-16.4162h3.36742h3.36742v-3.36742v-3.36743h13.4697h13.4697v3.36743v3.36742h-13.4697h-13.4697v16.4162v16.41619h10.10228h10.10228v-9.68135v-9.68134h-3.36743h-3.36743v-3.36742v-3.36742h6.73485h6.73484v13.04877v13.04877h-3.36742h-3.36742v3.36742v3.36742h-10.10228h-10.10228z" data-paper-data="{&quot;origPos&quot;:null}" id="path83" fill="#ffffff"/></g></g></svg>