<svg version="1.1" xmlns="http://www.w3.org/2000/svg" xmlns:xlink="http://www.w3.org/1999/xlink" width="34.49903" height="47.96877"><g transform="translate(-223.58383,-156.84895)"><g data-paper-data="{&quot;isPaintingLayer&quot;:true}" fill="none" fill-rule="nonzero" stroke="none" stroke-width="1" stroke-linecap="butt" stroke-linejoin="miter" stroke-miterlimit="10" stroke-dasharray="" stroke-dashoffset="0" font-family="none" font-weight="none" font-size="none" text-anchor="none" style="mix-blend-mode: normal"><path d="M225.25048,181.66669v-23.15105h3.36742h3.36743v3.36743v3.36742h3.36742h3.36742v3.36742v3.36742h3.36743c3.28324,0 3.36743,0.08419 3.36743,2.94649c0,2.77813 0.16837,2.94649 2.94649,2.94649h2.94649v-9.68134v-9.68135h3.36742h3.36742v23.15105v23.15104h-3.36742h-3.36742v-9.68134v-9.68135h-3.36742h-3.36742v-3.36742c0,-3.28324 -0.08419,-3.36742 -2.9465,-3.36742c-2.86231,0 -2.9465,-0.08419 -2.9465,-3.36743v-3.36742h-3.36742h-3.36742v16.41619v16.4162h-3.36743h-3.36742z" data-paper-data="{&quot;origPos&quot;:null}" id="path97" fill="#000000"/><path d="M223.58383,180.00002v-23.15105h3.36742h3.36743v3.36743v3.36742h3.36742h3.36742v3.36742v3.36742h3.36743c3.28324,0 3.36743,0.08419 3.36743,2.94649c0,2.77813 0.16837,2.94649 2.94649,2.94649h2.94649v-9.68134v-9.68135h3.36742h3.36742v23.15105v23.15104h-3.36742h-3.36742v-9.68134v-9.68135h-3.36742h-3.36742v-3.36742c0,-3.28324 -0.08419,-3.36742 -2.9465,-3.36742c-2.86231,0 -2.9465,-0.08419 -2.9465,-3.36743v-3.36742h-3.36742h-3.36742v16.41619v16.4162h-3.36743h-3.36742z" data-paper-data="{&quot;origPos&quot;:null}" id="path97" fill="#ffffff"/></g></g></svg>