<svg version="1.1" xmlns="http://www.w3.org/2000/svg" xmlns:xlink="http://www.w3.org/1999/xlink" width="276.3578" height="246.19266" viewBox="0,0,276.3578,246.19266"><g transform="translate(-100.9266,-53.89908)"><g data-paper-data="{&quot;isPaintingLayer&quot;:true}" fill-rule="nonzero" stroke-width="5" stroke-linecap="butt" stroke-linejoin="miter" stroke-miterlimit="10" stroke-dasharray="" stroke-dashoffset="0" style="mix-blend-mode: normal"><path d="M240,232.5c-29.54723,0 -53.5,-23.50505 -53.5,-52.5c0,-28.99495 23.95277,-52.5 53.5,-52.5c29.54723,0 53.5,23.50505 53.5,52.5c0,28.99495 -23.95277,52.5 -53.5,52.5z" fill="#bababa" stroke="#bababa"/><path d="M319.17431,161.39908c-29.54723,0 -53.5,-23.50505 -53.5,-52.5c0,-28.99495 23.95277,-52.5 53.5,-52.5c29.54723,0 53.5,23.50505 53.5,52.5c0,28.99495 -23.95277,52.5 -53.5,52.5z" fill="#bababa" stroke="#bababa"/><path d="M321.2844,296.44495c-29.54723,0 -53.5,-23.50505 -53.5,-52.5c0,-28.99495 23.95277,-52.5 53.5,-52.5c29.54723,0 53.5,23.50505 53.5,52.5c0,28.99495 -23.95277,52.5 -53.5,52.5z" fill="#bababa" stroke="#bababa"/><path d="M162.52294,297.59174c-29.54723,0 -53.5,-23.50505 -53.5,-52.5c0,-28.99495 23.95277,-52.5 53.5,-52.5c29.54723,0 53.5,23.50505 53.5,52.5c0,28.99495 -23.95277,52.5 -53.5,52.5z" fill="#bababa" stroke="#bababa"/><path d="M156.9266,169.65597c-29.54723,0 -53.5,-23.50505 -53.5,-52.5c0,-28.99495 23.95277,-52.5 53.5,-52.5c29.54723,0 53.5,23.50505 53.5,52.5c0,28.99495 -23.95277,52.5 -53.5,52.5z" fill="#bababa" stroke="#bababa"/></g></g></svg>