<svg version="1.1" xmlns="http://www.w3.org/2000/svg" xmlns:xlink="http://www.w3.org/1999/xlink" width="35.3409" height="47.96875"><g transform="translate(-223.16288,-156.84896)"><g data-paper-data="{&quot;isPaintingLayer&quot;:true}" fill="none" fill-rule="nonzero" stroke="none" stroke-width="1" stroke-linecap="butt" stroke-linejoin="miter" stroke-miterlimit="10" stroke-dasharray="" stroke-dashoffset="0" font-family="none" font-weight="none" font-size="none" text-anchor="none" style="mix-blend-mode: normal"><path d="M231.56439,201.45029v-3.36742h-3.36742h-3.36742v-16.41619v-16.4162h3.36742h3.36742v-3.36742v-3.36743h10.10227h10.10227v3.36743v3.36742h3.36742h3.36743v16.4162v16.41619h-3.36743h-3.36742v3.36742v3.36742h-10.10227h-10.10227zM250.92708,181.66668v-16.4162h-9.68135h-9.68134v16.4162v16.41619h9.68134h9.68135z" data-paper-data="{&quot;origPos&quot;:null}" id="path99" fill="#000000"/><path d="M229.89772,199.78362v-3.36742h-3.36742h-3.36742v-16.41619v-16.4162h3.36742h3.36742v-3.36742v-3.36743h10.10227h10.10227v3.36743v3.36742h3.36742h3.36743v16.4162v16.41619h-3.36743h-3.36742v3.36742v3.36742h-10.10227h-10.10227zM249.26041,180.00001v-16.4162h-9.68135h-9.68134v16.4162v16.41619h9.68134h9.68135z" data-paper-data="{&quot;origPos&quot;:null}" id="path99" fill="#ffffff"/></g></g></svg>